<svg xmlns="http://www.w3.org/2000/svg" width="640" height="400" viewBox="0 0 640 400" data-fixture="synthetic">
  <title>SYNTHETIC TEST IMAGE</title>
  <defs>
    <linearGradient id="wall-paint" x1="0" y1="0" x2="0" y2="1">
      <stop offset="0" stop-color="#d8d3c9"/>
      <stop offset="1" stop-color="#bdb7ad"/>
    </linearGradient>
    <linearGradient id="hair-dark" x1="0" y1="0" x2="1" y2="1">
      <stop offset="0" stop-color="#17191c"/>
      <stop offset="1" stop-color="#34383d"/>
    </linearGradient>
    <pattern id="wall-grain" width="18" height="18" patternUnits="userSpaceOnUse">
      <path d="M0 4h18M0 13h18" stroke="#aaa59d" stroke-opacity=".16"/>
      <circle cx="4" cy="8" r=".8" fill="#f0ede7" fill-opacity=".28"/>
      <circle cx="14" cy="16" r=".7" fill="#99948c" fill-opacity=".2"/>
    </pattern>
  </defs>
  <g id="wall-surface" data-surface="neutral-interior-wall">
    <rect width="640" height="400" fill="url(#wall-paint)"/>
    <rect width="640" height="400" fill="url(#wall-grain)"/>
    <path d="M0 318H640" stroke="#918b82" stroke-width="5" opacity=".5"/>
    <path d="M0 323H640" stroke="#ece8e1" stroke-width="3" opacity=".7"/>
    <rect x="0" y="360" width="640" height="40" fill="#9d978e" opacity=".6"/>
  </g>
  <g id="neutral-person-back-with-hair" data-subject="neutral-person-back">
    <path d="M385 400c9-80 32-121 77-139 24-10 55-10 79 0 45 18 68 59 77 139z" fill="#7d858a"/>
    <path d="M401 400c8-65 28-104 63-121 12-6 24-9 35-10 11 1 23 4 35 10 35 17 55 56 63 121z" fill="#9ca2a3" opacity=".72"/>
    <path d="M438 278c4-34 19-59 45-69 16-6 34-6 50 0 26 10 41 35 45 69l-11 53c-7 28-24 48-59 57-35-9-52-29-59-57z" fill="#c5bcb1"/>
    <path d="M423 267c0-57 19-103 65-111 51-9 80 33 80 93 0 35-8 66-27 87-15 16-34 23-54 23-23 0-42-10-54-29-7-11-10-34-10-63z" fill="url(#hair-dark)" stroke="#111316" stroke-width="5"/>
    <path d="M432 248c10-37 24-57 42-68M450 281c4-36 13-77 35-99M476 299c-2-42 5-91 22-116M503 300c10-44 11-80 1-113M528 285c12-28 14-63 5-91" fill="none" stroke="#596067" stroke-width="7" stroke-linecap="round" opacity=".75"/>
    <path d="M432 339c20 20 42 30 61 30s41-10 61-30" fill="none" stroke="#17191c" stroke-width="9" opacity=".8"/>
    <path d="M378 400c7-44 14-76 28-104M626 400c-7-44-14-76-28-104" fill="none" stroke="#596167" stroke-width="5" opacity=".7"/>
  </g>
</svg>
